<?xml version="1.0" encoding="iso-8859-1"?>
<!-- Generator: Adobe Illustrator 19.0.0, SVG Export Plug-In . SVG Version: 6.00 Build 0)  -->
<svg version="1.1" id="Capa_1" xmlns="http://www.w3.org/2000/svg" xmlns:xlink="http://www.w3.org/1999/xlink" x="0px" y="0px"
	 viewBox="0 0 511.996 511.996" style="enable-background:new 0 0 511.996 511.996;" xml:space="preserve">
<g>
	<g>
		<path d="M256.236,480.121h-0.078c-2.21,0-3.961,1.79-3.961,4c0,2.212,1.832,4,4.039,4c2.211,0,4-1.788,4-4
			C260.236,481.911,258.447,480.121,256.236,480.121z"/>
	</g>
</g>
<g>
	<g>
		<path d="M255.998,0c-77.194,0-139.999,80.746-139.999,179.998c0,99.25,62.805,180,139.999,180s139.999-80.75,139.999-180
			C395.997,80.746,333.192,0,255.998,0z M255.998,351.998c-72.784,0-131.999-77.156-131.999-171.999
			C123.999,85.16,183.214,8,255.998,8c72.781,0,132,77.16,132,171.999C387.998,274.843,328.779,351.998,255.998,351.998z"/>
	</g>
</g>
<g>
	<g>
		<path d="M255.998,23.999c-63.96,0-115.999,69.98-115.999,155.999c0,86.015,52.039,156,115.999,156
			c63.961,0,115.999-69.985,115.999-156C371.997,93.979,319.959,23.999,255.998,23.999z M255.998,327.998
			c-59.55,0-107.999-66.391-107.999-148c0-81.608,48.449-147.999,107.999-147.999c59.547,0,108,66.391,108,147.999
			C363.998,261.607,315.545,327.998,255.998,327.998z"/>
	</g>
</g>
<g>
	<g>
		<path d="M231.998,367.997c-2.211,0-3.999,1.789-3.999,4v112.124c0,2.212,1.788,4,3.999,4c2.212,0,4-1.788,4-4V371.997
			C235.998,369.786,234.21,367.997,231.998,367.997z"/>
	</g>
</g>
<g>
	<g>
		<path d="M279.999,367.997c-2.211,0-4,1.789-4,4v112.124c0,2.212,1.789,4,4,4c2.209,0,3.999-1.788,3.999-4V371.997
			C283.998,369.786,282.208,367.997,279.999,367.997z"/>
	</g>
</g>
<g>
	<g>
		<path d="M279.999,479.996c-2.211,0-4,1.79-4,4c0,11.032-8.969,20-20.001,20c-11.027,0-20-8.968-20-20c0-2.21-1.788-4-4-4
			c-2.211,0-3.999,1.79-3.999,4c0,15.438,12.561,28,27.999,28s28-12.561,28-28C283.998,481.786,282.208,479.996,279.999,479.996z"/>
	</g>
</g>
<g>
	<g>
		<path d="M266.515,457.481l-15.688-15.687c-1.562-1.563-4.094-1.563-5.656,0c-1.562,1.562-1.562,4.094,0,5.656l15.688,15.688
			c0.781,0.781,1.805,1.172,2.827,1.172c1.023,0,2.046-0.391,2.829-1.172C268.077,461.576,268.077,459.043,266.515,457.481z"/>
	</g>
</g>
<g>
	<g>
		<path d="M267.327,441.168c-1.562-1.562-4.094-1.562-5.656,0l-16.407,16.406c-1.562,1.562-1.562,4.094,0,5.656
			c0.781,0.782,1.805,1.173,2.828,1.173s2.048-0.39,2.828-1.173l16.407-16.405C268.889,445.262,268.889,442.73,267.327,441.168z"/>
	</g>
</g>
<g>
	<g>
		<path d="M266.515,425.341l-15.688-15.688c-1.562-1.563-4.094-1.563-5.656,0c-1.562,1.562-1.562,4.093,0,5.656l15.688,15.688
			c0.781,0.781,1.805,1.171,2.827,1.171c1.023,0,2.046-0.39,2.829-1.172C268.077,429.434,268.077,426.903,266.515,425.341z"/>
	</g>
</g>
<g>
	<g>
		<path d="M267.327,409.029c-1.562-1.562-4.094-1.562-5.656,0l-16.407,16.406c-1.562,1.561-1.562,4.094,0,5.656
			c0.781,0.78,1.805,1.171,2.828,1.171s2.048-0.391,2.828-1.171l16.407-16.407C268.889,413.123,268.889,410.591,267.327,409.029z"/>
	</g>
</g>
<g>
	<g>
		<path d="M266.515,393.2l-15.688-15.687c-1.562-1.562-4.094-1.562-5.656,0c-1.562,1.562-1.562,4.094,0,5.656l15.688,15.688
			c0.781,0.78,1.805,1.172,2.827,1.172c1.023,0,2.046-0.391,2.829-1.171C268.077,397.295,268.077,394.762,266.515,393.2z"/>
	</g>
</g>
<g>
	<g>
		<path d="M267.327,376.888c-1.562-1.562-4.094-1.562-5.656,0l-16.407,16.406c-1.562,1.562-1.562,4.094,0,5.656
			c0.781,0.781,1.805,1.172,2.828,1.172s2.048-0.391,2.828-1.172l16.407-16.406C268.889,380.982,268.889,378.45,267.327,376.888z"/>
	</g>
</g>
<g>
	<g>
		<path d="M330.826,105.163c-1.562-1.562-4.094-1.562-5.656,0L181.171,249.162c-1.562,1.563-1.562,4.094,0,5.656
			c0.781,0.781,1.805,1.172,2.828,1.172c1.023,0,2.047-0.391,2.827-1.172l144-143.999
			C332.388,109.257,332.388,106.725,330.826,105.163z"/>
	</g>
</g>
<g>
	<g>
		<path d="M326.827,161.171c-1.562-1.562-4.096-1.562-5.658,0l-88.003,87.999c-1.562,1.563-1.562,4.094,0,5.656
			c0.782,0.781,1.806,1.172,2.829,1.172s2.046-0.391,2.827-1.172l88.005-87.999C328.389,165.264,328.389,162.733,326.827,161.171z"
			/>
	</g>
</g>
<g>
	<g>
		<path d="M270.827,113.171c-1.563-1.562-4.095-1.562-5.657,0l-87.999,88.007c-1.562,1.562-1.562,4.094,0,5.656
			c0.781,0.781,1.805,1.172,2.828,1.172c1.023,0,2.047-0.391,2.828-1.172l88-88.007
			C272.389,117.265,272.389,114.733,270.827,113.171z"/>
	</g>
</g>
<g>
</g>
<g>
</g>
<g>
</g>
<g>
</g>
<g>
</g>
<g>
</g>
<g>
</g>
<g>
</g>
<g>
</g>
<g>
</g>
<g>
</g>
<g>
</g>
<g>
</g>
<g>
</g>
<g>
</g>
</svg>
